<?xml version="1.0" encoding="UTF-8"?>
<svg version="1.1" xmlns="http://www.w3.org/2000/svg" width="340" height="317">
<path d="M0 0 C3.53287622 3.2464268 5.17602914 7.25408653 6.98046875 11.625 C7.95111672 13.99502964 7.95111672 13.99502964 9.17578125 16.125 C14.57472136 26.21786399 10.71872435 38.82692743 9 49.625 C8.73316406 51.35943359 8.73316406 51.35943359 8.4609375 53.12890625 C7.13911401 61.58265797 7.13911401 61.58265797 6 65 C7.10794922 64.7834375 7.10794922 64.7834375 8.23828125 64.5625 C18.11720118 62.75492126 27.82857603 61.08673716 37 66 C40.22129822 70.12728834 40.52284736 74.27492662 40.34765625 79.35546875 C39.11498822 88.73205593 33.5054635 96.28953342 28 103.6875 C26.73638418 105.97657393 26.73638418 105.97657393 27.58203125 108.44921875 C30.87914529 116.70562829 35.37843001 124.46252849 39.56689453 132.29296875 C40.74307873 134.51469455 41.88110931 136.74731294 42.99609375 139 C46.30323509 145.34463566 48.93807549 148.08436327 55.5625 150.80078125 C60.733045 153.3446231 63.99381847 157.90014289 66.4375 163 C67.40039378 168.13543351 68.01377418 172.47933872 65 177 C65.3900533 180.34668348 66.96571063 183.11171776 68.51171875 186.0703125 C69.02283203 187.05 69.53394531 188.0296875 70.06054688 189.0390625 C70.59744141 190.05742187 71.13433594 191.07578125 71.6875 192.125 C72.20505859 193.12015625 72.72261719 194.1153125 73.25585938 195.140625 C76.23935356 200.83267118 79.38323499 206.37990334 82.72485352 211.86865234 C84.16291581 214.27230615 85.42506581 216.71952653 86.625 219.25 C89.48057859 225.07299446 92.56539232 230.75344782 95.6875 236.4375 C100.25772813 244.76453821 104.73496383 253.13308301 109.11352539 261.5625 C111.18191458 265.54230072 113.26512475 269.50902248 115.4296875 273.4375 C115.80254883 274.11820557 116.17541016 274.79891113 116.55957031 275.50024414 C117.54616524 277.29415586 118.54220969 279.08286187 119.5390625 280.87109375 C121.01646943 284.03527276 121.794019 286.51794031 122 290 C120 292.9375 120 292.9375 117 295 C113.75 295.375 113.75 295.375 110 294 C105.3928095 290.21785603 101.59812953 285.68816452 97.69921875 281.203125 C94.0068599 276.97260658 90.17708158 272.8853893 86.3125 268.8125 C78.45526536 260.49750947 70.67480539 252.11634667 62.95703125 243.671875 C62.46050049 243.12893799 61.96396973 242.58600098 61.45239258 242.02661133 C60.09213159 240.53830425 58.73350604 239.0485029 57.375 237.55859375 C55.85784286 235.92415637 54.29802731 234.32767143 52.6875 232.78515625 C51 231 51 231 51 229 C50.42765625 228.76539063 49.8553125 228.53078125 49.265625 228.2890625 C46.48315699 226.70593415 44.82929786 224.8008475 42.75 222.375 C42.04359375 221.55773437 41.3371875 220.74046875 40.609375 219.8984375 C40.07828125 219.27195313 39.5471875 218.64546875 39 218 C38.80365967 218.58491211 38.60731934 219.16982422 38.4050293 219.77246094 C37.50676216 222.43426694 36.59726256 225.09210213 35.6875 227.75 C35.37876953 228.67039063 35.07003906 229.59078125 34.75195312 230.5390625 C34.44580078 231.42851562 34.13964844 232.31796875 33.82421875 233.234375 C33.40789185 234.45979004 33.40789185 234.45979004 32.9831543 235.70996094 C31.91553205 238.19674928 30.85501149 240.02452596 29 242 C24.67065655 242.43293435 21.78929493 242.23386516 17.625 241 C11.95079811 239.43470293 6.36487988 238.81756006 1 241.5 C0.34 241.995 -0.32 242.49 -1 243 C-1.66 243 -2.32 243 -3 243 C-3.185625 243.66 -3.37125 244.32 -3.5625 245 C-6.95179812 252.07331781 -12.80042205 257.84512876 -20 261 C-26.62359667 263.10863564 -31.64721893 261.34987999 -37.98046875 258.9921875 C-42.27908763 257.57970471 -46.49984178 257.19912205 -51 257 C-51.061875 258.27875 -51.12375 259.5575 -51.1875 260.875 C-52.58803684 272.82624772 -61.12875427 282.7567015 -69.75 290.625 C-72.49779102 292.78935594 -74.39122899 294.08592312 -78 294 C-82.89420653 293.04984269 -86.22946767 291.70495511 -89.9375 288.3125 C-91.7553949 285.39285062 -92.32372675 284.02300625 -92.9375 280.8125 C-93.5922369 276.77837974 -93.5922369 276.77837974 -97 275.1875 C-97.99 274.795625 -98.98 274.40375 -100 274 C-100.99 272.515 -100.99 272.515 -102 271 C-108.84785748 272.80206776 -115.88495064 275.71346856 -119.8125 281.81640625 C-120.34875 282.84636719 -120.885 283.87632812 -121.4375 284.9375 C-125.40855239 292.51261179 -131.08513332 296.03670643 -138.89453125 299.15625 C-149.11888544 301.93418774 -159.46526043 300.1758847 -169 296 C-169.90637207 295.60530518 -169.90637207 295.60530518 -170.83105469 295.20263672 C-184.42703228 289.1633978 -199.00444585 281.98962635 -205.1171875 267.7265625 C-206.73046533 262.74396107 -207.09853092 258.36470223 -206.9921875 253.125 C-206.97542969 251.81015625 -206.95867187 250.4953125 -206.94140625 249.140625 C-206.91044671 247.06682695 -206.87485368 244.99343863 -206.82861328 242.91992188 C-206.78612249 240.90519 -206.76391857 238.89006272 -206.7421875 236.875 C-206.7201123 235.67617187 -206.69803711 234.47734375 -206.67529297 233.2421875 C-207.03253476 229.67514163 -208.02475532 227.93602087 -210 225 C-210.6875 221.8125 -210.6875 221.8125 -211 218 C-211.11085937 217.22269531 -211.22171875 216.44539062 -211.3359375 215.64453125 C-211.68475119 211.76548244 -211.64194703 209.06692314 -209.6015625 205.67578125 C-205.27962975 200.62176602 -200.14274564 196.52384556 -194.94921875 192.40234375 C-189.75470804 188.17105357 -184.8720198 183.59692804 -180 179 C-179.26136719 178.34128906 -178.52273437 177.68257812 -177.76171875 177.00390625 C-173.81810917 172.51815966 -172.85657896 165.53763196 -172.6875 159.6875 C-172.83353092 156.08853999 -172.83353092 156.08853999 -174 153.2109375 C-176.86651822 144.00672665 -175.18463697 133.97094633 -172.55859375 124.90234375 C-171.22971624 117.99775643 -174.25582168 113.25629534 -177.625 107.5 C-178.53601936 105.90097123 -179.44485261 104.30069509 -180.3515625 102.69921875 C-180.80047852 101.90821777 -181.24939453 101.1172168 -181.71191406 100.30224609 C-183.55336081 97.0109567 -185.30088994 93.6791347 -187 90.3125 C-187.53625 89.25675781 -188.0725 88.20101562 -188.625 87.11328125 C-192.23191835 78.94648032 -193.95661544 69.37750869 -191.27734375 60.64453125 C-189.28103337 56.85396619 -186.99729543 54.44583026 -183 53 C-174.5196625 51.88599836 -165.89465658 53.33132951 -158.94140625 58.54296875 C-158.28011719 59.10628906 -157.61882812 59.66960937 -156.9375 60.25 C-147.6681678 67.97166991 -135.1557611 72.32308324 -123.40625 74.4296875 C-121 75 -121 75 -119 77 C-119.00902344 76.29875 -119.01804687 75.5975 -119.02734375 74.875 C-118.77782681 66.89045805 -116.6143499 63.44817464 -111 58 C-110.04795021 56.84517596 -109.10864838 55.67961986 -108.1875 54.5 C-107.465625 53.675 -106.74375 52.85 -106 52 C-105.34 52 -104.68 52 -104 52 C-103.73832031 51.41476563 -103.47664063 50.82953125 -103.20703125 50.2265625 C-100.99120475 46.13911556 -97.94869985 43.41682402 -94 41 C-89.70027531 39.76670218 -85.449554 39.35060217 -81 39 C-79.95972656 38.89171875 -78.91945312 38.7834375 -77.84765625 38.671875 C-71.55214814 38.05609814 -65.32104729 37.89798385 -59 38 C-58.90638184 37.40356689 -58.81276367 36.80713379 -58.71630859 36.19262695 C-57.52415577 29.41759746 -55.39214631 23.46783696 -52.625 17.1875 C-52.23828125 16.27291016 -51.8515625 15.35832031 -51.453125 14.41601562 C-46.5803011 3.17418196 -46.5803011 3.17418196 -40.5234375 0.41796875 C-39.14867819 -0.01842028 -37.76497415 -0.42731118 -36.375 -0.8125 C-35.63443359 -1.02261719 -34.89386719 -1.23273437 -34.13085938 -1.44921875 C-23.88620787 -4.09854928 -9.51681853 -5.66422693 0 0 Z M-62 132 C-64.1602278 134.92079819 -64.1602278 134.92079819 -66.0625 138.1875 C-67.03896484 139.78658203 -67.03896484 139.78658203 -68.03515625 141.41796875 C-72.39235435 149.12627203 -75.0559563 157.00461016 -77.25 165.5625 C-77.6521875 167.0465332 -77.6521875 167.0465332 -78.0625 168.56054688 C-80.98342628 179.78972009 -80.5123357 189.84524208 -75.3125 200.4375 C-69.74969939 206.60168446 -62.91051399 209.48059871 -54.671875 210.20458984 C-52.23615939 210.30227632 -49.81254861 210.32217281 -47.375 210.3125 C-46.55515625 210.32861328 -45.7353125 210.34472656 -44.890625 210.36132812 C-39.85619334 210.3653751 -36.29760425 209.89237588 -32 207 C-25.28464164 200.12027972 -23.78522962 189.85127058 -23.375 180.5625 C-23.61494158 173.03143039 -25.89196854 166.92734565 -29.02001953 160.19433594 C-30.13325124 157.70162876 -31.12878706 155.176018 -32.12109375 152.6328125 C-32.87197539 150.75504015 -33.6232754 148.87743505 -34.375 147 C-34.71329834 146.11554199 -35.05159668 145.23108398 -35.40014648 144.31982422 C-38.39827263 137.05669975 -42.72903089 132.28447185 -49.6875 128.5625 C-55.41437145 127.16947721 -57.62928537 128.02363557 -62 132 Z M-127 229 C-128.58017387 231.01692059 -129.8083159 232.85619926 -131.0625 235.0625 C-131.73410156 236.18785156 -132.40570313 237.31320313 -133.09765625 238.47265625 C-135.72575812 243.20007084 -138.20810408 247.97238646 -138.6875 253.4375 C-138.790625 254.613125 -138.89375 255.78875 -139 257 C-127.17499454 255.42969169 -127.17499454 255.42969169 -117.625 249.25 C-117.08875 248.1775 -116.5525 247.105 -116 246 C-115.64550781 245.43925781 -115.29101562 244.87851563 -114.92578125 244.30078125 C-113.71886454 242.35105655 -113.71886454 242.35105655 -113 239 C-114.85934572 234.32755092 -118.42330707 230.99496871 -123 229 C-124.32 229 -125.64 229 -127 229 Z " fill="#010101" transform="translate(214,9)"/>
<path d="M0 0 C6.4123929 0.41370277 10.33325902 2.79161201 15.375 6.5 C25.17012929 13.52629335 36.06216751 17.94022828 47.875 20.25 C47.875 20.91 47.875 21.57 47.875 22.25 C46.885 22.848125 45.895 23.44625 44.875 24.0625 C43.885 24.784375 42.895 25.50625 41.875 26.25 C41.37258678 28.9204053 41.37258678 28.9204053 41.875 31.25 C43.94812928 32.66334378 43.94812928 32.66334378 46.875 33.25 C49.65379691 32.34018893 52.06229713 30.87366671 54.5625 29.375 C61.7029703 25.25 61.7029703 25.25 63.875 25.25 C64.8828125 26.75390625 64.8828125 26.75390625 66 28.8125 C70.93562619 36.95195371 76.85134501 40.7881644 85.875 43.25 C89.96254904 44.19288508 94.06992514 45.01221108 98.1875 45.8125 C100.30963063 46.225172 102.43077885 46.64293677 104.55078125 47.06640625 C105.47802002 47.24631104 106.40525879 47.42621582 107.3605957 47.61157227 C109.76926458 48.22315292 111.70959389 49.04727846 113.875 50.25 C113.18019531 50.68699219 112.48539063 51.12398437 111.76953125 51.57421875 C107.57853194 55.44848936 105.2719541 60.08158025 102.5625 65.0625 C101.9943457 66.09117187 101.42619141 67.11984375 100.84082031 68.1796875 C99.70396677 70.24293788 98.57187872 72.308822 97.44482422 74.37744141 C96.07660721 76.88108703 94.68736468 79.37077549 93.28515625 81.85546875 C92.56416646 83.15312528 91.84403395 84.45125872 91.125 85.75 C90.51140625 86.8534375 89.8978125 87.956875 89.265625 89.09375 C86.08931421 96.30290483 86.62843377 104.31308385 86.5625 112.0625 C86.53349609 113.18720703 86.50449219 114.31191406 86.47460938 115.47070312 C86.41815461 122.94444609 87.51308615 128.57460599 90.875 135.25 C91.63490234 136.80267578 91.63490234 136.80267578 92.41015625 138.38671875 C92.91417969 139.22847656 93.41820312 140.07023438 93.9375 140.9375 C94.66646484 142.21173828 94.66646484 142.21173828 95.41015625 143.51171875 C100.56986501 149.24381992 105.63042403 153.25394341 113.57592773 153.6940918 C119.07834624 153.76789076 124.56816041 153.52648025 130.0625 153.25 C150.95688772 152.20448047 150.95688772 152.20448047 156.125 156.078125 C159.94117047 160.58201123 159.95908316 165.32430559 159.6875 171 C159.69330078 171.94488281 159.69910156 172.88976562 159.70507812 173.86328125 C159.64813722 176.4458269 159.50379792 178.74470148 158.875 181.25 C155.57858044 184.24775067 152.68403638 184.71017806 148.24609375 184.55078125 C144.3402458 184.05531125 140.59362346 183.00583525 136.796875 181.984375 C133.15269033 181.06845693 129.61086914 180.60921819 125.875 180.25 C124.885 175.795 124.885 175.795 123.875 171.25 C119.53315798 171.43464366 119.53315798 171.43464366 115.875 173.25 C115.87922739 175.00648001 115.89048699 176.76328199 115.94091797 178.51904297 C116.37763529 194.54765128 110.86751451 205.60704084 99.875 217.25 C98.555 216.92 97.235 216.59 95.875 216.25 C95.38 210.31 95.38 210.31 94.875 204.25 C93.26625 203.71375 91.6575 203.1775 90 202.625 C85.10061511 200.70123023 85.10061511 200.70123023 83.25 197 C83.12625 196.0925 83.0025 195.185 82.875 194.25 C77.25064967 193.02286902 73.37344655 193.59984468 68 195.75 C67.29891113 196.02408691 66.59782227 196.29817383 65.87548828 196.58056641 C55.24956177 200.9356962 48.67260896 207.75731372 42.9375 217.5625 C40.2927798 221.00865056 38.05233653 222.41728547 33.875 223.25 C16.23821112 224.89016062 2.36031619 217.77659827 -11.3125 207.25 C-16.80721208 202.10841852 -18.61302431 195.1462675 -19.109375 187.84765625 C-19.13122583 184.21495506 -18.77629006 180.66080508 -18.3984375 177.05078125 C-17.2574098 167.9900037 -17.2574098 167.9900037 -20.0625 159.625 C-22.56609792 155.52820341 -24.03048979 152.07927887 -23.125 147.25 C-20.90946433 144.33779448 -18.04872595 142.41365046 -15.125 140.25 C-13.44327419 138.76690322 -11.77694197 137.26620101 -10.125 135.75 C-6.50823655 132.48609152 -2.86110392 129.26209051 0.8125 126.0625 C4.04655481 123.22045183 7.23833807 120.33279053 10.4140625 117.42578125 C12.875 115.25 12.875 115.25 15.1484375 113.54296875 C22.29629427 108.08243133 23.82899911 101.21850424 25.625 92.6875 C26.69197511 83.54175134 26.69197511 83.54175134 23.875 75.25 C20.29142759 74.99984127 20.29142759 74.99984127 16.875 75.25 C16.38 81.19 16.38 81.19 15.875 87.25 C12.85344244 83.22125658 12.44404692 82.54949907 12.4375 77.875 C12.41816406 76.95976562 12.39882813 76.04453125 12.37890625 75.1015625 C13.48654176 68.73483872 18.88517128 63.61059311 22.875 58.6875 C23.39578125 58.04103516 23.9165625 57.39457031 24.453125 56.72851562 C25.21882813 55.7781543 25.21882813 55.7781543 26 54.80859375 C26.49024658 54.19838379 26.98049316 53.58817383 27.4855957 52.95947266 C28.71177241 51.45082931 29.96888906 49.96744682 31.23046875 48.48828125 C33.35568419 45.59576712 33.27359955 43.75767608 32.875 40.25 C31.83645575 39.01733125 31.83645575 39.01733125 29.60546875 38.875 C25.71474969 39.40934768 24.63405815 41.25930074 22.1875 44.25 C20.78545087 45.94659726 19.3553749 47.62129677 17.875 49.25 C17.215 49.25 16.555 49.25 15.875 49.25 C13.80973485 45.45983337 11.7483053 41.66759314 9.6875 37.875 C9.10935547 36.81410156 8.53121094 35.75320312 7.93554688 34.66015625 C-4.72996318 11.33271965 -4.72996318 11.33271965 -4.125 1.25 C-3.125 0.25 -3.125 0.25 0 0 Z M49.875 164.25 C48.29482613 166.26692059 47.0666841 168.10619926 45.8125 170.3125 C45.14089844 171.43785156 44.46929687 172.56320313 43.77734375 173.72265625 C41.14924188 178.45007084 38.66689592 183.22238646 38.1875 188.6875 C38.084375 189.863125 37.98125 191.03875 37.875 192.25 C49.70000546 190.67969169 49.70000546 190.67969169 59.25 184.5 C59.78625 183.4275 60.3225 182.355 60.875 181.25 C61.22949219 180.68925781 61.58398438 180.12851563 61.94921875 179.55078125 C63.15613546 177.60105655 63.15613546 177.60105655 63.875 174.25 C62.01565428 169.57755092 58.45169293 166.24496871 53.875 164.25 C52.555 164.25 51.235 164.25 49.875 164.25 Z " fill="#E5E5E5" transform="translate(37.125,73.75)"/>
<path d="M0 0 C5.68033742 2.77502722 9.29581779 8.85655579 11.3203125 14.65234375 C11.88195274 17.15599355 12.21981104 19.56917035 12.4375 22.125 C12.54191406 23.25808594 12.54191406 23.25808594 12.6484375 24.4140625 C12.9439795 31.21152848 11.49286881 37.72848311 10.171875 44.35546875 C9.34101914 48.62023418 8.73279127 52.79406138 8.4375 57.125 C8.34984375 57.90875 8.2621875 58.6925 8.171875 59.5 C7.64740665 67.12863053 10.5533652 71.75318751 14.4375 78.125 C16.19218129 81.17334524 17.90862204 84.24247405 19.625 87.3125 C20.05280762 88.06080078 20.48061523 88.80910156 20.92138672 89.58007812 C22.89525811 93.08402843 24.6448528 96.48450357 25.984375 100.28125 C27.32578946 104.06075387 29.2237611 107.12022262 31.5 110.4375 C36.69102432 118.22296396 40.93692662 126.43270721 45.20996094 134.74658203 C47.1322923 138.47119462 49.09704417 142.17301565 51.0625 145.875 C51.42883545 146.5669043 51.7951709 147.25880859 52.17260742 147.97167969 C53.98695597 151.39766079 55.8075028 154.82021404 57.63671875 158.23828125 C57.99233887 158.90311523 58.34795898 159.56794922 58.71435547 160.25292969 C59.67956458 162.05592757 60.64636062 163.85807566 61.61328125 165.66015625 C62.87872724 168.06369072 64.10802778 170.4674363 65.30859375 172.90234375 C67.78795581 177.89042007 70.49656981 182.74886365 73.1875 187.625 C76.81719072 194.23205087 80.36987766 200.85556506 83.6875 207.625 C86.71734339 213.80226745 90.02336703 219.76062041 93.46875 225.71484375 C95.51069574 229.25178548 97.52674795 232.79938543 99.5 236.375 C100.08910156 237.43203125 100.67820312 238.4890625 101.28515625 239.578125 C101.66542969 240.41859375 102.04570312 241.2590625 102.4375 242.125 C102.1075 242.785 101.7775 243.445 101.4375 244.125 C98.91233195 241.62934749 96.39320627 239.12767549 93.875 236.625 C93.17052734 235.92890625 92.46605469 235.2328125 91.74023438 234.515625 C87.69991657 230.49392617 83.84390091 226.38200015 80.1237793 222.06298828 C77.3735493 218.90223459 74.49654715 215.86270676 71.625 212.8125 C64.17902706 204.8664244 56.76088363 196.90630824 49.72265625 188.59375 C48.55761873 187.26227855 47.31352531 186.00102531 46.0625 184.75 C43.06447713 181.75197713 40.28796205 178.59891622 37.5 175.40625 C35.22426301 172.88914697 32.85261651 170.50915348 30.4375 168.125 C27.80961792 165.52372756 25.18567701 162.91851604 22.5625 160.3125 C21.88058594 159.63896484 21.19867188 158.96542969 20.49609375 158.27148438 C15.92822831 153.72537067 11.63645902 149.01177706 7.4375 144.125 C2.21708199 138.2565301 -3.07763453 132.45587561 -8.39208984 126.67260742 C-10.70604107 124.1538638 -13.01427241 121.63040031 -15.30859375 119.09375 C-16.60990234 117.65515625 -16.60990234 117.65515625 -17.9375 116.1875 C-19.09378906 114.90552734 -19.09378906 114.90552734 -20.2734375 113.59765625 C-22.64287412 111.0381795 -25.08369163 108.57880598 -27.5625 106.125 C-28.10890137 105.46677246 -28.65530273 104.80854492 -29.21826172 104.13037109 C-34.7738859 97.78501226 -39.88053397 96.4900092 -48.0625 95.3125 C-49.21073242 95.11930176 -50.35896484 94.92610352 -51.54199219 94.72705078 C-54.87861015 94.1675083 -58.21954733 93.64507236 -61.5625 93.125 C-64.6504445 92.60714245 -67.73174881 92.05874168 -70.8125 91.5 C-71.99328125 91.30148438 -73.1740625 91.10296875 -74.390625 90.8984375 C-82.37181278 88.9522858 -86.50773462 84.83914411 -90.828125 78.171875 C-93.35888432 73.64502382 -94.70495503 69.31975277 -93.5625 64.125 C-90.18058393 56.15811471 -85.17949216 49.43400979 -77.5625 45.125 C-74.67936243 44.18162802 -71.81704411 43.75276065 -68.8125 43.375 C-67.99845703 43.25850098 -67.18441406 43.14200195 -66.34570312 43.02197266 C-59.46043303 42.09734156 -52.55853767 41.65627458 -45.61816406 41.41503906 C-42.37275826 41.3021675 -39.66287914 41.15845971 -36.5625 40.125 C-35.57903869 37.29754874 -34.78296681 34.58231493 -34.0625 31.6875 C-33.62527344 30.0363859 -33.18777541 28.38534366 -32.75 26.734375 C-32.07928597 24.14164607 -31.41455397 21.54744144 -30.75 18.953125 C-28.90035268 12.18509731 -26.89108375 7.28809981 -20.8515625 3.36328125 C-13.23627122 -0.75127789 -8.45422321 -2.07647588 0 0 Z " fill="#E5E4E4" transform="translate(200.5625,16.875)"/>
<path d="M0 0 C9.01815163 0.70369731 13.93316689 8.14362068 19.46875 14.55078125 C20.04173828 15.23567627 20.61472656 15.92057129 21.20507812 16.6262207 C22.93890673 18.71032517 22.93890673 18.71032517 25.18164062 20.64135742 C25.76107422 21.29595947 26.34050781 21.95056152 26.9375 22.625 C26.55757318 25.93579082 25.94735032 28.47942368 24.9375 31.625 C24.63900146 32.55602539 24.63900146 32.55602539 24.33447266 33.50585938 C22.91761978 37.89610773 21.44276104 42.26433921 19.9375 46.625 C18.679375 46.46 17.42125 46.295 16.125 46.125 C5.49100725 44.90132432 5.49100725 44.90132432 -4.625 47.625 C-6.80078125 48.46875 -6.80078125 48.46875 -9.0625 48.625 C-12.94884434 46.52742285 -15.93259792 43.71127976 -19.0625 40.625 C-19.63742188 40.10164063 -20.21234375 39.57828125 -20.8046875 39.0390625 C-22.1875 37.75 -22.1875 37.75 -24.0625 35.625 C-24.0625 34.965 -24.0625 34.305 -24.0625 33.625 C-23.175625 33.08875 -22.28875 32.5525 -21.375 32 C-14.25518146 27.434946 -11.80763455 18.84633229 -9.3125 11.1875 C-8.71587527 9.39635641 -8.11703912 7.60594739 -7.515625 5.81640625 C-7.25942383 5.03467041 -7.00322266 4.25293457 -6.73925781 3.44750977 C-5.43821752 -0.05619363 -3.56693054 0.18242713 0 0 Z " fill="#E5E5E4" transform="translate(217.0625,191.375)"/>
<path d="M0 0 C8.18131891 4.75952804 14.98298395 12.06906474 17.9375 21.125 C18.96977281 25.21585891 19.43755636 28.79945893 19 33 C17 35 17 35 14.375 35.125 C13.59125 35.08375 12.8075 35.0425 12 35 C12 34.01 12 33.02 12 32 C11.34 32 10.68 32 10 32 C9.76023438 32.77214844 9.52046875 33.54429687 9.2734375 34.33984375 C6.69176915 39.73283807 0.09270879 41.2497363 -5.2578125 43.16796875 C-7.34317563 43.86392729 -9.43404926 44.5436959 -11.53125 45.203125 C-13.96794314 45.92112048 -13.96794314 45.92112048 -16 47 C-23.1119334 47.68825162 -23.1119334 47.68825162 -26.5 45.0625 C-30.22953295 37.4480369 -27.61976923 28.67288215 -25 21 C-21.51630101 13.29270135 -17.06715015 5.53199881 -10.625 -0.0625 C-6.8013744 -1.42808057 -3.76850628 -1.31254976 0 0 Z M-7 9 C-8.58017387 11.01692059 -9.8083159 12.85619926 -11.0625 15.0625 C-11.73410156 16.18785156 -12.40570313 17.31320313 -13.09765625 18.47265625 C-15.72575812 23.20007084 -18.20810408 27.97238646 -18.6875 33.4375 C-18.790625 34.613125 -18.89375 35.78875 -19 37 C-7.17499454 35.42969169 -7.17499454 35.42969169 2.375 29.25 C2.91125 28.1775 3.4475 27.105 4 26 C4.35449219 25.43925781 4.70898438 24.87851563 5.07421875 24.30078125 C6.28113546 22.35105655 6.28113546 22.35105655 7 19 C5.14065428 14.32755092 1.57669293 10.99496871 -3 9 C-4.32 9 -5.64 9 -7 9 Z " fill="#040404" transform="translate(94,229)"/>
<path d="M0 0 C-1.63122325 7.65530208 -3.93364479 13.93166367 -9 20 C-9.66 20.33 -10.32 20.66 -11 21 C-12.5066972 18.2118978 -14.00419804 15.41896042 -15.5 12.625 C-15.92925781 11.8309375 -16.35851562 11.036875 -16.80078125 10.21875 C-17.20683594 9.45820312 -17.61289063 8.69765625 -18.03125 7.9140625 C-18.40830078 7.2123291 -18.78535156 6.5105957 -19.17382812 5.78759766 C-20 4 -20 4 -20 2 C-14.7389292 -1.15664248 -5.62194419 -2.81097209 0 0 Z " fill="#E0E0DF" transform="translate(243,84)"/>
<path d="M0 0 C0.99 0 1.98 0 3 0 C3 1.32 3 2.64 3 4 C4.32 4 5.64 4 7 4 C6.3098442 8.12542568 5.05112152 11.8451293 3.5625 15.75 C3.13066406 16.89984375 2.69882813 18.0496875 2.25390625 19.234375 C1 22 1 22 -1 23 C-1 22.01 -1 21.02 -1 20 C-4.27773504 20.75150023 -4.27773504 20.75150023 -6 24 C-6.99 23.67 -7.98 23.34 -9 23 C-8.51051418 17.08732203 -6.69849319 12.77453032 -3.9375 7.5625 C-3.37192383 6.46518555 -3.37192383 6.46518555 -2.79492188 5.34570312 C-1.87240704 3.55906047 -0.9374688 1.77884171 0 0 Z " fill="#151514" transform="translate(97,135)"/>
<path d="M0 0 C0 1.32 0 2.64 0 4 C-1.95772621 5.39466336 -3.96674088 6.71795666 -6 8 C-8.48698892 10.31670411 -10.75681985 12.84906119 -13.03125 15.37304688 C-14.4140625 16.83203125 -14.4140625 16.83203125 -17 19 C-19.3359375 18.82421875 -19.3359375 18.82421875 -21 18 C-18.97242996 9.48420581 -15.21846432 4.69981716 -7.875 0 C-4.71812227 -1.09804443 -3.14424697 -1.01725637 0 0 Z " fill="#FBFBFB" transform="translate(57,198)"/>
<path d="M0 0 C0.99 0.33 1.98 0.66 3 1 C5.23683055 13.44372725 6.16618245 25.35166941 6 38 C5.34 38 4.68 38 4 38 C0.41834791 13.01734161 0.41834791 13.01734161 1 3 C0.34 2.67 -0.32 2.34 -1 2 C-0.67 1.34 -0.34 0.68 0 0 Z " fill="#161615" transform="translate(221,131)"/>
<path d="M0 0 C0.99 0 1.98 0 3 0 C4.5151607 4.54548209 4.22537663 9.05095511 4.25 13.8125 C4.270625 14.79798828 4.29125 15.78347656 4.3125 16.79882812 C4.34213941 22.31546285 4.08735955 26.21459271 1 31 C0.34 30.67 -0.32 30.34 -1 30 C-0.83701416 29.13036621 -0.67402832 28.26073242 -0.50610352 27.36474609 C-0.03425883 24.22776422 0.11468255 21.33095346 0.09765625 18.1640625 C0.09443359 17.10058594 0.09121094 16.03710938 0.08789062 14.94140625 C0.07951172 13.84699219 0.07113281 12.75257812 0.0625 11.625 C0.05798828 10.50738281 0.05347656 9.38976562 0.04882812 8.23828125 C0.03709244 5.49213196 0.02067363 2.74609414 0 0 Z " fill="#0D0D0D" transform="translate(203,32)"/>
<path d="M0 0 C2.25 0.75 2.25 0.75 4 2 C4.75 4.625 4.75 4.625 5 7 C1.23331402 8.3805087 -1.44789173 7.59568159 -5.25 6.5625 C-6.32765625 6.27503906 -7.4053125 5.98757813 -8.515625 5.69140625 C-9.74539062 5.34916016 -9.74539062 5.34916016 -11 5 C-11 4.34 -11 3.68 -11 3 C-10.01 3 -9.02 3 -8 3 C-7.67 2.01 -7.34 1.02 -7 0 C-4.27761216 -1.36119392 -2.90677521 -0.76129827 0 0 Z " fill="#171716" transform="translate(63,287)"/>
<path d="M0 0 C0.66 0 1.32 0 2 0 C0.60379712 3.43960398 -0.74795572 4.70985148 -4 6.4375 C-6.49149842 7.93330014 -7.82700248 8.7367429 -9.4375 11.1875 C-10.28587067 15.42935333 -10.68190391 19.68896095 -11 24 C-11.99 23.67 -12.98 23.34 -14 23 C-14.61759201 13.35870243 -14.61759201 13.35870243 -12.4375 8.5625 C-9.44971969 5.42150019 -6.92024639 3.85320738 -3 2 C-2.01 2 -1.02 2 0 2 C0 1.34 0 0.68 0 0 Z " fill="#20201F" transform="translate(128,66)"/>
<path d="M0 0 C3 2 3 2 3.6159668 4.41088867 C3.72593994 5.4032251 3.83591309 6.39556152 3.94921875 7.41796875 C4.13774414 9.05282227 4.13774414 9.05282227 4.33007812 10.72070312 C4.50700195 12.43676758 4.50700195 12.43676758 4.6875 14.1875 C4.88182617 15.87456055 4.88182617 15.87456055 5.08007812 17.59570312 C5.69067831 23.09110483 6.16803015 28.47100798 6 34 C5.34 34 4.68 34 4 34 C1.91234285 22.65574983 0.4555049 11.52898621 0 0 Z " fill="#101010" transform="translate(230,141)"/>
<path d="M0 0 C0.99 0.33 1.98 0.66 3 1 C2.3098442 5.12542568 1.05112152 8.8451293 -0.4375 12.75 C-0.86933594 13.89984375 -1.30117187 15.0496875 -1.74609375 16.234375 C-3 19 -3 19 -5 20 C-6.36111111 13.68939394 -6.36111111 13.68939394 -4.625 10.375 C-3.820625 9.199375 -3.820625 9.199375 -3 8 C-2.64386903 6.33805547 -2.30791692 4.671549 -2 3 C-1.34 2.01 -0.68 1.02 0 0 Z " fill="#060606" transform="translate(101,138)"/>
<path d="M0 0 C0.66 0.33 1.32 0.66 2 1 C1.50628906 1.48210937 1.01257812 1.96421875 0.50390625 2.4609375 C-0.45708984 3.40839844 -0.45708984 3.40839844 -1.4375 4.375 C-2.07558594 5.00148437 -2.71367187 5.62796875 -3.37109375 6.2734375 C-5.07882176 7.91723061 -5.07882176 7.91723061 -6 10 C-5.34 10 -4.68 10 -4 10 C-4 12.31 -4 14.62 -4 17 C-5.65 17.33 -7.3 17.66 -9 18 C-9.89642616 14.91153174 -10.39226169 12.2094138 -10 9 C-7.71906715 6.10684527 -4.98468945 4.12519308 -2 2 C-1.34 1.34 -0.68 0.68 0 0 Z " fill="#D4D4D1" transform="translate(24,212)"/>
<path d="M0 0 C0 0.33 0 0.66 0 1 C-1.216875 1.226875 -2.43375 1.45375 -3.6875 1.6875 C-8.01722307 2.76993077 -10.0645712 4.58855571 -13 8 C-14.66666667 9.66666667 -16.33333333 11.33333333 -18 13 C-16.66117477 9.22451284 -14.98364112 6.38612311 -12.5 3.25 C-11.58734375 2.08210937 -11.58734375 2.08210937 -10.65625 0.890625 C-7.14034606 -3.12281252 -4.72145494 -1.48638396 0 0 Z " fill="#EDECE0" transform="translate(92,227)"/>
<path d="M0 0 C1.67542976 0.28604898 3.34385343 0.61781233 5 1 C5.625 3.375 5.625 3.375 6 6 C5.34 6.66 4.68 7.32 4 8 C0.46428571 7.46428571 0.46428571 7.46428571 -1 6 C-1.125 3.5 -1.125 3.5 -1 1 C-0.67 0.67 -0.34 0.34 0 0 Z " fill="#FBFAF8" transform="translate(27,219)"/>
<path d="M0 0 C0.99 0.495 0.99 0.495 2 1 C2.64259881 3.47017339 3.16873874 5.87021882 3.625 8.375 C3.7590625 9.06078125 3.893125 9.7465625 4.03125 10.453125 C4.58338211 13.34900157 5 16.04560993 5 19 C4.34 19 3.68 19 3 19 C0.04328652 12.47059106 -0.35368021 7.12600133 0 0 Z " fill="#1A1A19" transform="translate(40,83)"/>
<path d="M0 0 C0.66 0 1.32 0 2 0 C1.48686537 5.13134625 -0.05734987 9.74837792 -3 14 C-3.99 14.33 -4.98 14.66 -6 15 C-4.36041242 9.76727367 -2.61047965 4.84803364 0 0 Z " fill="#1A1A19" transform="translate(104,192)"/>
<path d="M0 0 C1.03115279 3.26913624 0.9638984 5.86041348 0.5625 9.25 C0.46066406 10.14203125 0.35882813 11.0340625 0.25390625 11.953125 C0.12822266 12.96632813 0.12822266 12.96632813 0 14 C-0.99 13.67 -1.98 13.34 -3 13 C-3.08086147 11.20906809 -3.13912702 9.41710372 -3.1875 7.625 C-3.22230469 6.62726563 -3.25710937 5.62953125 -3.29296875 4.6015625 C-3.14794922 3.31378906 -3.14794922 3.31378906 -3 2 C-2.01 1.34 -1.02 0.68 0 0 Z " fill="#0F0F0F" transform="translate(117,76)"/>
<path d="M0 0 C1.32 0 2.64 0 4 0 C4 2.31 4 4.62 4 7 C3.01 7.33 2.02 7.66 1 8 C-0.35439668 5.29120665 -0.06501451 2.99066732 0 0 Z " fill="#434341" transform="translate(16,222)"/>
<path d="M0 0 C3 2 3 2 3.51171875 4.1640625 C3.56972656 4.97617188 3.62773437 5.78828125 3.6875 6.625 C3.75324219 7.44226563 3.81898438 8.25953125 3.88671875 9.1015625 C3.92410156 9.72804687 3.96148437 10.35453125 4 11 C3.67 11 3.34 11 3 11 C2.67 12.65 2.34 14.3 2 16 C1.67 16 1.34 16 1 16 C0.67 10.72 0.34 5.44 0 0 Z " fill="#20201F" transform="translate(230,141)"/>
<path d="M0 0 C2.31459868 1.81817001 2.95377187 2.75615543 3.51171875 5.69921875 C3.56972656 6.68535156 3.62773438 7.67148438 3.6875 8.6875 C3.75324219 9.68136719 3.81898437 10.67523438 3.88671875 11.69921875 C3.92410156 12.45847656 3.96148437 13.21773437 4 14 C3.34 14 2.68 14 2 14 C1.66179834 12.4176994 1.32964061 10.83410625 1 9.25 C0.814375 8.36828125 0.62875 7.4865625 0.4375 6.578125 C0 4 0 4 0 0 Z " fill="#1B1B1A" transform="translate(45,90)"/>
<path d="M0 0 C0.99 0.33 1.98 0.66 3 1 C3.33 2.65 3.66 4.3 4 6 C3.01 6.33 2.02 6.66 1 7 C0.34 6.67 -0.32 6.34 -1 6 C-1.042721 4.33388095 -1.04063832 2.66617115 -1 1 C-0.67 0.67 -0.34 0.34 0 0 Z " fill="#F8F8F5" transform="translate(100,102)"/>
<path d="M0 0 C0.99 0.495 0.99 0.495 2 1 C2.4140625 3.28515625 2.4140625 3.28515625 2.625 6.0625 C2.69976562 6.98160156 2.77453125 7.90070313 2.8515625 8.84765625 C2.92503906 9.91306641 2.92503906 9.91306641 3 11 C2.01 11 1.02 11 0 11 C0 7.37 0 3.74 0 0 Z " fill="#060606" transform="translate(232,151)"/>
<path d="M0 0 C0.33 0 0.66 0 1 0 C1.50423019 5.29441695 0.18923033 7.81413519 -3 12 C-4 10 -4 10 -3.22265625 7.6171875 C-2.83980469 6.71226562 -2.45695312 5.80734375 -2.0625 4.875 C-1.68222656 3.96492187 -1.30195312 3.05484375 -0.91015625 2.1171875 C-0.60980469 1.41851562 -0.30945313 0.71984375 0 0 Z " fill="#171716" transform="translate(109,195)"/>
<path d="M0 0 C1.98 0.99 1.98 0.99 4 2 C2.25 6.875 2.25 6.875 0 8 C0 5.36 0 2.72 0 0 Z " fill="#D9D9D8" transform="translate(200,239)"/>
<path d="M0 0 C0.99 0 1.98 0 3 0 C3 1.98 3 3.96 3 6 C2.01 6.495 2.01 6.495 1 7 C-0.0625 5.1875 -0.0625 5.1875 -1 3 C-0.67 2.01 -0.34 1.02 0 0 Z " fill="#2F2F2D" transform="translate(97,135)"/>
<path d="M0 0 C1.32 0 2.64 0 4 0 C4 0.99 4 1.98 4 3 C2.35 3.33 0.7 3.66 -1 4 C-0.67 2.68 -0.34 1.36 0 0 Z " fill="#090909" transform="translate(149,65)"/>
</svg>
